<?xml version="1.0" encoding="UTF-8" standalone="no"?>
<!-- Created with Inkscape (http://www.inkscape.org/) -->
<svg
   xmlns:svg="http://www.w3.org/2000/svg"
   xmlns="http://www.w3.org/2000/svg"
   xmlns:xlink="http://www.w3.org/1999/xlink"
   version="1.0"
   width="500"
   height="500"
   viewBox="0 0 360 240"
   id="Flag of Turkey">
  <defs
     id="defs25" />
  <rect
     width="360"
     height="360"
     x="-4.006127e-17"
     y="-59.999996"
     style="fill:#e30a17"
     id="rect5" />
  <g
     transform="matrix(-1.9062132,0,0,1.9062132,244.84876,203.74806)"
     id="g2184">
    <circle
       cx="120"
       cy="120"
       r="60"
       transform="translate(-85.888321,-166.90355)"
       style="fill:#ffffff"
       id="circle7" />
    <circle
       cx="135"
       cy="120"
       r="48"
       transform="translate(-85.888321,-166.90355)"
       style="fill:#e30a17"
       id="circle9" />
  </g>
  <g
     transform="matrix(0,-78.871924,-78.871924,0,143.69983,114.33989)"
     style="fill:#ffffff"
     id="star">
    <g
       style="fill:#ffffff"
       id="cone">
      <polygon
         points="0,0 0,1 0.5,1 0,0 "
         transform="matrix(0.9510565,0.309017,-0.309017,0.9510565,0,-1)"
         style="fill:#ffffff"
         id="triangle" />
      <use
         transform="scale(-1,1)"
         style="fill:#ffffff"
         id="use14"
         x="0"
         y="0"
         width="360"
         height="240"
         xlink:href="#triangle" />
    </g>
    <use
       transform="matrix(0.309017,0.9510565,-0.9510565,0.309017,0,0)"
       style="fill:#ffffff"
       id="use16"
       x="0"
       y="0"
       width="360"
       height="240"
       xlink:href="#cone" />
    <use
       transform="matrix(0.309017,-0.9510565,0.9510565,0.309017,0,0)"
       style="fill:#ffffff"
       id="use18"
       x="0"
       y="0"
       width="360"
       height="240"
       xlink:href="#cone" />
    <use
       transform="matrix(-0.809017,0.5877853,-0.5877853,-0.809017,0,0)"
       style="fill:#ffffff"
       id="use20"
       x="0"
       y="0"
       width="360"
       height="240"
       xlink:href="#cone" />
    <use
       transform="matrix(-0.809017,-0.5877853,0.5877853,-0.809017,0,0)"
       style="fill:#ffffff"
       id="use22"
       x="0"
       y="0"
       width="360"
       height="240"
       xlink:href="#cone" />
  </g>
  <g
     transform="translate(-4.3237174,0.5577451)"
     id="g2220">
    <path
       d="M -31.1524,-25.033894 C -29.942806,-25.033884 -28.992407,-24.659485 -28.3012,-23.910694 C -27.610008,-23.161886 -27.149209,-22.326687 -26.9188,-21.405094 C -26.688409,-20.483489 -26.37161,-19.64829 -25.9684,-18.899494 C -25.56521,-18.150691 -25.018011,-17.776292 -24.3268,-17.776294 C -22.138014,-17.776292 -21.043615,-19.67709 -21.0436,-23.478694 L -21.0436,-63.481894 C -21.043615,-66.649844 -21.504414,-68.665842 -22.426,-69.529895 C -23.347613,-70.45144 -25.56521,-71.027439 -29.0788,-71.257895 L -29.0788,-72.899495 L -4.2819994,-72.899495 L -4.2819994,-71.257895 C -7.795628,-71.027439 -10.013226,-70.45144 -10.9348,-69.529895 C -11.798824,-68.665842 -12.230824,-66.649844 -12.2308,-63.481894 L -12.2308,-31.513894 C -12.230824,-26.099483 -13.498022,-21.894687 -16.0324,-18.899494 C -18.566817,-15.961893 -22.166814,-14.493095 -26.8324,-14.493094 C -29.309207,-14.493095 -31.354005,-15.069094 -32.9668,-16.221094 C -34.579602,-17.373092 -35.386001,-18.87069 -35.386,-20.713894 C -35.386001,-21.865887 -34.982801,-22.873887 -34.1764,-23.737894 C -33.312403,-24.601885 -32.304404,-25.033884 -31.1524,-25.033894"
       transform="translate(58.747614,37.498478)"
       style="font-size:86.40000153px;fill:#ffffff;font-family:FreeSerif"
       id="flowRoot2188" />
    <path
       d="M 5.1356007,-35.661094 L 3.1484007,-35.661094 C 2.6299618,-39.17467 1.7947626,-41.421068 0.64280065,-42.400294 C -0.50923511,-43.437066 -2.8420328,-43.955466 -6.3555995,-43.955494 L -18.8836,-43.955494 L -18.8836,-25.120294 C -18.883617,-22.009887 -18.422818,-19.965089 -17.5012,-18.985894 C -16.522019,-18.064291 -14.362022,-17.517092 -11.0212,-17.344294 L -11.0212,-15.702694 L -35.2132,-15.702694 L -35.2132,-17.344294 C -31.930004,-17.574692 -29.856406,-18.179491 -28.9924,-19.158694 C -28.128408,-20.195489 -27.696408,-22.499487 -27.6964,-26.070694 L -27.6964,-63.481894 C -27.696408,-66.534644 -28.157208,-68.521842 -29.0788,-69.443495 C -30.000406,-70.42264 -32.045204,-71.027439 -35.2132,-71.257895 L -35.2132,-72.899495 L 10.665201,-72.899495 L 10.924401,-60.544294 L 8.7644008,-60.544294 C 8.0155565,-64.403446 6.8635576,-66.880243 5.3084007,-67.974694 C 3.7531607,-69.069041 0.52756387,-69.616241 -4.3683994,-69.616295 L -16.1188,-69.616295 C -17.270819,-69.616241 -18.019618,-69.414641 -18.3652,-69.011494 C -18.710817,-68.665842 -18.883617,-67.888242 -18.8836,-66.678694 L -18.8836,-47.497894 L -6.3555995,-47.497894 C -2.8996328,-47.497862 -0.59563502,-47.987462 0.55640065,-48.966694 C 1.7659627,-50.00346 2.6299618,-52.249858 3.1484007,-55.705894 L 5.1356007,-55.705894 L 5.1356007,-35.661094"
       transform="translate(334.36142,37.498478)"
       style="font-size:86.40000153px;fill:#ffffff;font-family:FreeSerif"
       id="flowRoot2196" />
    <path
       d="M -18.8836,-22.614694 C -18.883617,-20.944288 -18.422818,-19.907489 -17.5012,-19.504294 C -16.522019,-19.10109 -13.958822,-18.89949 -9.8115995,-18.899494 L -7.4787995,-18.899494 C -1.3156343,-18.89949 3.0907614,-19.61949 5.7404007,-21.059494 C 8.3899561,-22.557087 10.780354,-25.638684 12.911601,-30.304294 L 15.330801,-30.304294 L 11.442801,-15.702694 L -35.2132,-15.702694 L -35.2132,-17.344294 C -32.045204,-17.574692 -30.000406,-18.150691 -29.0788,-19.072294 C -28.157208,-20.051489 -27.696408,-22.067487 -27.6964,-25.120294 L -27.6964,-63.481894 C -27.696408,-66.534644 -28.157208,-68.521842 -29.0788,-69.443495 C -30.000406,-70.42264 -32.045204,-71.027439 -35.2132,-71.257895 L -35.2132,-72.899495 L 10.665201,-72.899495 L 10.924401,-60.544294 L 8.7644008,-60.544294 C 8.0155565,-64.403446 6.8635576,-66.880243 5.3084007,-67.974694 C 3.7531607,-69.069041 0.52756387,-69.616241 -4.3683994,-69.616295 L -16.0324,-69.616295 C -17.184419,-69.616241 -17.962018,-69.414641 -18.3652,-69.011494 C -18.710817,-68.665842 -18.883617,-67.888242 -18.8836,-66.678694 L -18.8836,-47.497894 L -5.5779995,-47.497894 C -1.8916338,-47.497862 0.46996393,-48.045062 1.5068007,-49.139494 C 2.6011618,-50.29146 3.407561,-52.480257 3.9260007,-55.705894 L 5.9132007,-55.705894 L 5.9132007,-35.661094 L 3.9260007,-35.661094 C 3.3499611,-39.23227 2.5147619,-41.507468 1.4204007,-42.486694 C 0.32596407,-43.465866 -2.0068336,-43.955466 -5.5779995,-43.955494 L -18.8836,-43.955494 L -18.8836,-22.614694"
       transform="translate(58.747614,289.98822)"
       style="font-size:86.40000153px;fill:#ffffff;font-family:FreeSerif"
       id="flowRoot2204" />
    <path
       d="M 316.68742,264.86793 L 316.68742,226.50633 C 316.68741,223.33838 316.19781,221.32238 315.21862,220.45833 C 314.29701,219.53678 311.99301,218.96078 308.30662,218.73033 L 308.30662,217.08873 L 333.96742,217.08873 L 333.96742,218.73033 C 330.3386,218.90318 328.0058,219.45038 326.96902,220.37193 C 325.9898,221.29358 325.5002,223.33838 325.50022,226.50633 L 325.50022,264.86793 C 325.5002,268.03593 326.0186,270.10953 327.05542,271.08873 C 328.0922,272.01033 330.3962,272.52873 333.96742,272.64393 L 333.96742,274.28553 L 308.30662,274.28553 L 308.30662,272.64393 C 311.93541,272.52873 314.23941,272.01033 315.21862,271.08873 C 316.19781,270.16713 316.68741,268.09353 316.68742,264.86793"
       style="font-size:86.40000153px;fill:#ffffff;font-family:FreeSerif"
       id="flowRoot2212" />
  </g>
</svg>
