<?xml version="1.0" encoding="UTF-8"?>
<svg xmlns="http://www.w3.org/2000/svg" width="192" height="213"
viewBox="0 0 1920 2130" fill="#29499D">
<path d="M1439,916l94,162 290-487h-773c-258,9-288,327-115,483-62-160-43-334 160-342h453l-109,184z
M1052,557h187l-277-494-386,669c-122,227 139,412 360,340-170-26-310-128-216-308l227-393 105,186z
M547,714l93-162 -566-7 386,669c137,219 427,86 475-142-107,134-266,205-375,33l-227-393 214,2z
M430,1229l-94-162-289,487h772c258-9 288-326 115-482 62,160 44,333-160,341h-453l109-184z
M818,1588h-188l277,494 387-669c121-227-139-412-361-340 170,26 311,128 216,308l-227,393-104-186z
M1322,1433l-93,162 567,7-387-669c-136-219-427-86-475,142 108-134 267-205 375-33l227,393-214-2z"/>
</svg>